<?xml version="1.0" encoding="UTF-8"?><!DOCTYPE svg PUBLIC "-//W3C//DTD SVG 1.1//EN" "http://www.w3.org/Graphics/SVG/1.1/DTD/svg11.dtd"><svg xmlns="http://www.w3.org/2000/svg" xmlns:xlink="http://www.w3.org/1999/xlink"><defs><style>svg > g {display:none;} svg > g:target{display:inline}</style></defs><symbol id=""/><symbol id="calc" viewBox="0 0 390 390">
    <!-- Generator: Sketch 52.5 (67469) - http://www.bohemiancoding.com/sketch -->
    <title>calc</title>
    <desc>Created with Sketch.</desc>
    <g id="calc" stroke="none" stroke-width="1" fill="none" fill-rule="evenodd" style="stroke: var(--iconoclash-shared-0,none)">
        <path d="M284.266,314.19 C284.266,321.46 278.371,327.35 271.102,327.35 L119.156,327.35 C111.891,327.35 106,321.46 106,314.19 L106,87.16 C106,79.89 111.891,74 119.156,74 L271.102,74 C278.371,74 284.266,79.89 284.266,87.16 L284.266,314.19 Z" id="Path" stroke="#233881" stroke-width="6.384" style="stroke: var(--iconoclash-shared-1,#233881)"/>
        <polygon id="Fill-25" fill="#64C5E5" points="126.18 135.13 264.078 135.13 264.078 104.49 126.18 104.49" stroke="initial" style="stroke: var(--iconoclash-shared-2,initial)"/>
        <path d="M126.18,135.13 L264.078,135.13 L264.078,104.49 L126.18,104.49 L126.18,135.13 Z M126.18,164.07 L264.078,164.07 L264.078,153.01 L126.18,153.01 L126.18,164.07 Z" id="Stroke-26" stroke="#233881" stroke-width="6.384" style="stroke: var(--iconoclash-shared-1,#233881)"/>
        <polygon id="Fill-27" fill="#64C5E5" points="140.051 210.93 165.602 210.93 165.602 185.38 140.051 185.38" stroke="initial" style="stroke: var(--iconoclash-shared-2,initial)"/>
        <polygon id="Stroke-28" stroke="#233881" stroke-width="6.384" points="140.051 210.93 165.602 210.93 165.602 185.38 140.051 185.38" style="stroke: var(--iconoclash-shared-1,#233881)"/>
        <polygon id="Fill-29" fill="#64C5E5" points="182.352 210.93 207.906 210.93 207.906 185.38 182.352 185.38" stroke="initial" style="stroke: var(--iconoclash-shared-2,initial)"/>
        <polygon id="Stroke-30" stroke="#233881" stroke-width="6.384" points="182.352 210.93 207.906 210.93 207.906 185.38 182.352 185.38" style="stroke: var(--iconoclash-shared-1,#233881)"/>
        <polygon id="Fill-31" fill="#64C5E5" points="224.656 210.93 250.211 210.93 250.211 185.38 224.656 185.38" stroke="initial" style="stroke: var(--iconoclash-shared-2,initial)"/>
        <polygon id="Stroke-32" stroke="#233881" stroke-width="6.384" points="224.656 210.93 250.211 210.93 250.211 185.38 224.656 185.38" style="stroke: var(--iconoclash-shared-1,#233881)"/>
        <polygon id="Fill-33" fill="#64C5E5" points="140.051 253.9 165.602 253.9 165.602 228.34 140.051 228.34" stroke="initial" style="stroke: var(--iconoclash-shared-2,initial)"/>
        <polygon id="Stroke-34" stroke="#233881" stroke-width="6.384" points="140.051 253.9 165.602 253.9 165.602 228.34 140.051 228.34" style="stroke: var(--iconoclash-shared-1,#233881)"/>
        <polygon id="Fill-35" fill="#64C5E5" points="182.352 253.9 207.906 253.9 207.906 228.34 182.352 228.34" stroke="initial" style="stroke: var(--iconoclash-shared-2,initial)"/>
        <polygon id="Stroke-36" stroke="#233881" stroke-width="6.384" points="182.352 253.9 207.906 253.9 207.906 228.34 182.352 228.34" style="stroke: var(--iconoclash-shared-1,#233881)"/>
        <polygon id="Fill-37" fill="#64C5E5" points="224.656 253.9 250.211 253.9 250.211 228.34 224.656 228.34" stroke="initial" style="stroke: var(--iconoclash-shared-2,initial)"/>
        <polygon id="Stroke-38" stroke="#233881" stroke-width="6.384" points="224.656 253.9 250.211 253.9 250.211 228.34 224.656 228.34" style="stroke: var(--iconoclash-shared-1,#233881)"/>
        <polygon id="Fill-39" fill="#64C5E5" points="140.047 296.87 165.602 296.87 165.602 271.31 140.047 271.31" stroke="initial" style="stroke: var(--iconoclash-shared-2,initial)"/>
        <polygon id="Stroke-40" stroke="#233881" stroke-width="6.384" points="140.047 296.87 165.602 296.87 165.602 271.31 140.047 271.31" style="stroke: var(--iconoclash-shared-1,#233881)"/>
        <polygon id="Fill-41" fill="#64C5E5" points="182.352 296.87 207.906 296.87 207.906 271.31 182.352 271.31" stroke="initial" style="stroke: var(--iconoclash-shared-2,initial)"/>
        <polygon id="Stroke-42" stroke="#233881" stroke-width="6.384" points="182.352 296.87 207.906 296.87 207.906 271.31 182.352 271.31" style="stroke: var(--iconoclash-shared-1,#233881)"/>
        <polygon id="Fill-43" fill="#64C5E5" points="224.656 296.87 250.211 296.87 250.211 271.31 224.656 271.31" stroke="initial" style="stroke: var(--iconoclash-shared-2,initial)"/>
        <path d="M224.656,296.87 L250.211,296.87 L250.211,271.31 L224.656,271.31 L224.656,296.87 Z M267.602,225.84 L267.602,298.52 C267.602,305.78 261.711,311.68 254.438,311.68 L210.895,311.68 L267.602,225.84 Z" id="Stroke-44" stroke="#233881" stroke-width="6.384" style="stroke: var(--iconoclash-shared-1,#233881)"/>
    </g>
</symbol><symbol id="clipboard" viewBox="0 0 390 390">
    <!-- Generator: Sketch 52.5 (67469) - http://www.bohemiancoding.com/sketch -->
    <title>clipboard</title>
    <desc>Created with Sketch.</desc>
    <g id="clipboard" stroke="none" stroke-width="1" fill="none" fill-rule="evenodd" style="stroke: var(--iconoclash-shared-0,none)">
        <polygon id="Fill-129" fill="#64C5E5" points="107 331.558 291.629 331.558 291.629 111 107 111" stroke="initial" style="stroke: var(--iconoclash-shared-2,initial)"/>
        <polygon id="Stroke-130" stroke="#233881" stroke-width="6.384" points="107 331.558 291.629 331.558 291.629 111 107 111" style="stroke: var(--iconoclash-shared-1,#233881)"/>
        <polygon id="Fill-131" fill="#FFFFFE" points="122 316.777 277.296 316.777 277.296 111 122 111" stroke="initial" style="stroke: var(--iconoclash-shared-2,initial)"/>
        <polygon id="Stroke-132" stroke="#233881" stroke-width="6.384" points="122 316.777 277.296 316.777 277.296 111 122 111" style="stroke: var(--iconoclash-shared-1,#233881)"/>
        <path d="M140,193.5 L258.68,193.5" id="Fill-133" fill="#64C5E5" stroke="initial" style="stroke: var(--iconoclash-shared-2,initial)"/>
        <path d="M140,193.5 L258.68,193.5" id="Stroke-134" stroke="#233881" stroke-width="6.384" style="stroke: var(--iconoclash-shared-1,#233881)"/>
        <path d="M140,233.5 L167.774,233.5" id="Fill-135" fill="#64C5E5" stroke="initial" style="stroke: var(--iconoclash-shared-2,initial)"/>
        <path d="M140,233.5 L167.774,233.5" id="Stroke-136" stroke="#233881" stroke-width="6.384" style="stroke: var(--iconoclash-shared-1,#233881)"/>
        <path d="M179,233.5 L258.969,233.5" id="Fill-137" fill="#64C5E5" stroke="initial" style="stroke: var(--iconoclash-shared-2,initial)"/>
        <path d="M179,233.5 L258.969,233.5" id="Stroke-138" stroke="#233881" stroke-width="6.384" style="stroke: var(--iconoclash-shared-1,#233881)"/>
        <path d="M140,212.5 L185.453,212.5" id="Fill-139" fill="#64C5E5" stroke="initial" style="stroke: var(--iconoclash-shared-2,initial)"/>
        <path d="M140,212.5 L185.453,212.5" id="Stroke-140" stroke="#233881" stroke-width="6.384" style="stroke: var(--iconoclash-shared-1,#233881)"/>
        <path d="M198,212.5 L258.602,212.5" id="Fill-141" fill="#64C5E5" stroke="initial" style="stroke: var(--iconoclash-shared-2,initial)"/>
        <path d="M198,212.5 L258.602,212.5" id="Stroke-142" stroke="#233881" stroke-width="6.384" style="stroke: var(--iconoclash-shared-1,#233881)"/>
        <path d="M140,253.5 L258.68,253.5" id="Fill-143" fill="#64C5E5" stroke="initial" style="stroke: var(--iconoclash-shared-2,initial)"/>
        <path d="M140,253.5 L258.68,253.5" id="Stroke-144" stroke="#233881" stroke-width="6.384" style="stroke: var(--iconoclash-shared-1,#233881)"/>
        <path d="M220.871,101.726 C220.879,101.457 220.914,101.171 220.914,100.894 C220.914,88.808 211.113,79 199.027,79 C186.937,79 177.136,88.808 177.136,100.894 C177.136,101.171 177.172,101.457 177.187,101.726 L162,101.726 L162,125.289 L236.062,125.289 L236.062,101.726 L220.871,101.726" id="Fill-153" fill="#64C5E5" stroke="initial" style="stroke: var(--iconoclash-shared-2,initial)"/>
        <path d="M220.871,101.726 C220.879,101.457 220.914,101.171 220.914,100.894 C220.914,88.808 211.113,79 199.027,79 C186.937,79 177.136,88.808 177.136,100.894 C177.136,101.171 177.172,101.457 177.187,101.726 L162,101.726 L162,125.289 L236.062,125.289 L236.062,101.726 L220.871,101.726 Z" id="Path" stroke="#233881" stroke-width="6.384" style="stroke: var(--iconoclash-shared-1,#233881)"/>
        <path d="M199.062,169.109 C193.503,169.109 189,164.609 189,159.051 C189,153.492 193.503,149 199.062,149 C204.617,149 209.121,153.492 209.121,159.051 C209.121,164.609 204.617,169.109 199.062,169.109 Z" id="Path" stroke="#233881" stroke-width="6.384" style="stroke: var(--iconoclash-shared-1,#233881)"/>
        <path d="M220.715,159.121 C220.715,158.457 220.683,157.812 220.625,157.176 L224.972,156.027 L223.019,148.574 L218.586,149.73 C217.656,147.785 216.441,146 214.988,144.418 L217.84,140.738 L211.738,136.023 L208.855,139.766 C206.984,138.809 204.972,138.121 202.844,137.742 L202.844,133 L195.14,133 L195.14,137.742 C193.117,138.098 191.191,138.742 189.406,139.621 L186.57,135.84 L180.402,140.469 L183.211,144.199 C182.136,145.32 181.191,146.555 180.386,147.895 L176.058,146.305 L173.394,153.527 L177.644,155.09 C177.39,156.395 177.258,157.746 177.258,159.121 C177.258,159.598 177.285,160.066 177.308,160.539 L173,161.668 L174.953,169.121 L179.168,168.016 C180.082,170.051 181.297,171.922 182.758,173.562 L180.133,176.961 L186.234,181.664 L188.828,178.324 C190.761,179.355 192.89,180.094 195.14,180.496 L195.14,184.695 L202.844,184.695 L202.844,180.496 C204.972,180.121 207,179.426 208.871,178.477 L211.402,181.855 L217.57,177.234 L215,173.801 C216.097,172.617 217.043,171.301 217.847,169.902 L221.922,171.395 L224.582,164.168 L220.429,162.633 C220.613,161.492 220.715,160.312 220.715,159.121 Z" id="Path" stroke="#233881" stroke-width="6.384" style="stroke: var(--iconoclash-shared-1,#233881)"/>
    </g>
</symbol><symbol id="compass" viewBox="0 0 390 390">
    <!-- Generator: Sketch 52.5 (67469) - http://www.bohemiancoding.com/sketch -->
    <title>compass</title>
    <desc>Created with Sketch.</desc>
    <g id="compass" stroke="none" stroke-width="1" fill="none" fill-rule="evenodd" style="stroke: var(--iconoclash-shared-0,none)">
        <polygon id="Path" stroke="#233881" stroke-width="6.384" points="139.6 290.08 198.18 121.7 177.02 114.33 125 285.01 125 321.98" style="stroke: var(--iconoclash-shared-1,#233881)"/>
        <polygon id="Path" stroke="#233881" stroke-width="6.384" points="264.54 321.98 265.3 290.08 215.55 114.33 194.39 121.7" style="stroke: var(--iconoclash-shared-1,#233881)"/>
        <path d="M221.22,123.39 C221.22,137.15 210.06,148.32 196.29,148.32 C182.51,148.32 171.36,137.15 171.36,123.39 C171.36,109.63 182.51,98.47 196.29,98.47 C210.06,98.47 221.22,109.63 221.22,123.39" id="Fill-90" fill="#64C5E5" stroke="initial" style="stroke: var(--iconoclash-shared-2,initial)"/>
        <path d="M221.22,123.39 C221.22,137.15 210.06,148.32 196.29,148.32 C182.51,148.32 171.36,137.15 171.36,123.39 C171.36,109.63 182.51,98.47 196.29,98.47 C210.06,98.47 221.22,109.63 221.22,123.39 Z" id="Path" stroke="#233881" stroke-width="6.384" style="stroke: var(--iconoclash-shared-1,#233881)"/>
        <path d="M265.31,160.34 C246.88,177.38 222.23,187.8 195.15,187.8 C168.07,187.8 143.42,177.38 125,160.34 L265.31,160.34 Z" id="Path" stroke="#233881" stroke-width="6.384" style="stroke: var(--iconoclash-shared-1,#233881)"/>
        <path d="M196.29,167.88 L196.29,199.55 L196.29,167.88 Z" id="Path" stroke="#233881" stroke-width="6.384" style="stroke: var(--iconoclash-shared-1,#233881)"/>
        <path d="M196.29,98.47 C199.2,98.47 202.01,98.97 204.6,99.89 L204.6,77.32 C204.6,72.73 200.88,69 196.29,69 C191.69,69 187.97,72.73 187.97,77.32 L187.97,99.89 C190.57,98.97 193.37,98.47 196.29,98.47" id="Fill-92" fill="#64C5E5" stroke="initial" style="stroke: var(--iconoclash-shared-2,initial)"/>
        <path d="M196.29,98.47 C199.2,98.47 202.01,98.97 204.6,99.89 L204.6,77.32 C204.6,72.73 200.88,69 196.29,69 C191.69,69 187.97,72.73 187.97,77.32 L187.97,99.89 C190.57,98.97 193.37,98.47 196.29,98.47 Z" id="Stroke-93" stroke="#233881" stroke-width="6.384" style="stroke: var(--iconoclash-shared-1,#233881)"/>
        <path d="M159.16,256.46 C159.16,265.88 151.51,273.52 142.08,273.52 C132.65,273.52 125,265.88 125,256.46 C125,247.01 132.65,239.37 142.08,239.37 C151.51,239.37 159.16,247.01 159.16,256.46" id="Fill-94" fill="#64C5E5" stroke="initial" style="stroke: var(--iconoclash-shared-2,initial)"/>
        <path d="M159.16,256.46 C159.16,265.88 151.51,273.52 142.08,273.52 C132.65,273.52 125,265.88 125,256.46 C125,247.01 132.65,239.37 142.08,239.37 C151.51,239.37 159.16,247.01 159.16,256.46 Z" id="Stroke-95" stroke="#233881" stroke-width="6.384" style="stroke: var(--iconoclash-shared-1,#233881)"/>
    </g>
</symbol><symbol id="gear" viewBox="0 0 390 390">
    <!-- Generator: Sketch 52.5 (67469) - http://www.bohemiancoding.com/sketch -->
    <title>gear</title>
    <desc>Created with Sketch.</desc>
    <g id="gear" stroke="none" stroke-width="1" fill="none" fill-rule="evenodd" style="stroke: var(--iconoclash-shared-0,none)">
        <path d="M194.9,228.29 C176.34,228.29 161.3,213.23 161.3,194.67 C161.3,176.12 176.34,161.07 194.9,161.07 C213.46,161.07 228.51,176.12 228.51,194.67 C228.51,213.23 213.46,228.29 194.9,228.29 Z M300.98,207.85 L322.81,206.21 L319.63,164.09 L298.07,165.72 C294.83,153.92 289.63,142.92 282.83,133.13 L297.63,117.62 L267.08,88.45 L252.39,103.85 C241.45,96.87 229.18,91.8 216.02,89.17 L216.02,68 L173.78,68 L173.78,89.17 C157.2,92.49 142.01,99.67 129.16,109.69 L113.06,95.71 L85.37,127.63 L101.61,141.7 C94.85,153.72 90.34,167.19 88.67,181.52 L67,183.15 L70.17,225.26 L92.07,223.61 C95.41,235.24 100.66,246.06 107.47,255.71 L92.17,271.74 L122.73,300.89 L138.14,284.75 C148.89,291.5 160.91,296.39 173.78,298.97 L173.78,321.35 L216.02,321.35 L216.02,298.97 C232.29,295.71 247.21,288.76 259.91,279.03 L276.75,293.64 L304.43,261.74 L287.73,247.25 C294.56,235.37 299.15,222.05 300.98,207.85 Z" id="Fill-84" fill="#FFFFFE" stroke="initial" style="stroke: var(--iconoclash-shared-2,initial)"/>
        <path d="M194.9,228.29 C176.34,228.29 161.3,213.23 161.3,194.67 C161.3,176.12 176.34,161.07 194.9,161.07 C213.46,161.07 228.51,176.12 228.51,194.67 C228.51,213.23 213.46,228.29 194.9,228.29 Z M300.98,207.85 L322.81,206.21 L319.63,164.09 L298.07,165.72 C294.83,153.92 289.63,142.92 282.83,133.13 L297.63,117.62 L267.08,88.45 L252.39,103.85 C241.45,96.87 229.18,91.8 216.02,89.17 L216.02,68 L173.78,68 L173.78,89.17 C157.2,92.49 142.01,99.67 129.16,109.69 L113.06,95.71 L85.37,127.63 L101.61,141.7 C94.85,153.72 90.34,167.19 88.67,181.52 L67,183.15 L70.17,225.26 L92.07,223.61 C95.41,235.24 100.66,246.06 107.47,255.71 L92.17,271.74 L122.73,300.89 L138.14,284.75 C148.89,291.5 160.91,296.39 173.78,298.97 L173.78,321.35 L216.02,321.35 L216.02,298.97 C232.29,295.71 247.21,288.76 259.91,279.03 L276.75,293.64 L304.43,261.74 L287.73,247.25 C294.56,235.37 299.15,222.05 300.98,207.85 Z" id="Stroke-85" stroke="#233881" stroke-width="6.384" style="stroke: var(--iconoclash-shared-1,#233881)"/>
        <path d="M262.15,194.68 C262.15,231.82 232.04,261.92 194.9,261.92 C157.76,261.92 127.66,231.82 127.66,194.68 C127.66,157.54 157.76,127.43 194.9,127.43 C232.04,127.43 262.15,157.54 262.15,194.68" id="Fill-86" fill="#64C5E5" stroke="initial" style="stroke: var(--iconoclash-shared-2,initial)"/>
        <path d="M262.15,194.68 C262.15,231.82 232.04,261.92 194.9,261.92 C157.76,261.92 127.66,231.82 127.66,194.68 C127.66,157.54 157.76,127.43 194.9,127.43 C232.04,127.43 262.15,157.54 262.15,194.68 Z" id="Stroke-87" stroke="#233881" stroke-width="6.384" style="stroke: var(--iconoclash-shared-1,#233881)"/>
        <path d="M228.51,194.67 C228.51,213.23 213.46,228.29 194.9,228.29 C176.34,228.29 161.3,213.23 161.3,194.67 C161.3,176.12 176.34,161.07 194.9,161.07 C213.46,161.07 228.51,176.12 228.51,194.67" id="Fill-88" fill="#FFFFFE" stroke="initial" style="stroke: var(--iconoclash-shared-2,initial)"/>
        <path d="M228.51,194.67 C228.51,213.23 213.46,228.29 194.9,228.29 C176.34,228.29 161.3,213.23 161.3,194.67 C161.3,176.12 176.34,161.07 194.9,161.07 C213.46,161.07 228.51,176.12 228.51,194.67 Z" id="Path" stroke="#233881" stroke-width="6.384" style="stroke: var(--iconoclash-shared-1,#233881)"/>
        <path d="M194.9,106.73 C241.64,106.73 282.85,144.28 282.85,194.67 L194.9,106.73 Z" id="Path" stroke="#233881" stroke-width="6.384" style="stroke: var(--iconoclash-shared-1,#233881)"/>
    </g>
</symbol><symbol id="hammer" viewBox="0 0 390 390">
    <!-- Generator: Sketch 52.5 (67469) - http://www.bohemiancoding.com/sketch -->
    <title>hammer</title>
    <desc>Created with Sketch.</desc>
    <g id="hammer" stroke="none" stroke-width="1" fill="none" fill-rule="evenodd" style="stroke: var(--iconoclash-shared-0,none)">
        <path d="M213.52,68 L174.473,68 L161.125,87.976 L150.219,87.976 L143.297,80.132 L128,80.132 L128,116.925 L144.821,116.925 L147.922,109.281 L156.696,109.281 C156.696,109.281 174.457,112.511 178.121,135.605 L216.481,135.605 L223.207,112.214 C232.868,85.703 260.282,115.328 260.282,115.328 L261.942,114.253 C251.235,69.402 213.52,68 213.52,68 Z" id="Path" stroke="#233881" stroke-width="6.384" style="stroke: var(--iconoclash-shared-1,#233881)"/>
        <polygon id="Path" stroke="#233881" stroke-width="6.384" points="178.121 161.671 216.27 161.671 216.27 135.605 178.121 135.605" style="stroke: var(--iconoclash-shared-1,#233881)"/>
        <polygon id="Path" stroke="#233881" stroke-width="6.384" points="188.977 217.929 205.418 217.929 205.418 161.671 188.977 161.671" style="stroke: var(--iconoclash-shared-1,#233881)"/>
        <path d="M224.731,321.355 C223.45,310.816 216.27,308.906 216.27,308.906 L216.27,228.46 C215.801,218.246 209.489,217.929 209.489,217.929 L184.91,217.929 C184.91,217.929 178.598,218.246 178.121,228.46 L178.121,308.906 C178.121,308.906 170.95,310.816 169.668,321.355 L224.731,321.355" id="Fill-19" fill="#64C5E5" stroke="initial" style="stroke: var(--iconoclash-shared-2,initial)"/>
        <path d="M224.731,321.355 C223.45,310.816 216.27,308.906 216.27,308.906 L216.27,228.46 C215.801,218.246 209.489,217.929 209.489,217.929 L184.91,217.929 C184.91,217.929 178.598,218.246 178.121,228.46 L178.121,308.906 C178.121,308.906 170.95,310.816 169.668,321.355 L224.731,321.355 Z" id="Path" stroke="#233881" stroke-width="6.384" style="stroke: var(--iconoclash-shared-1,#233881)"/>
        <path d="M162.543,99.855 C162.543,99.855 183.715,101.804 187.332,125.921 L162.543,99.855 Z" id="Path" stroke="#233881" stroke-width="6.384" style="stroke: var(--iconoclash-shared-1,#233881)"/>
    </g>
</symbol><symbol id="hardhat" viewBox="0 0 390 390">
    <!-- Generator: Sketch 52.5 (67469) - http://www.bohemiancoding.com/sketch -->
    <title>hardhat</title>
    <desc>Created with Sketch.</desc>
    <g id="hardhat" stroke="none" stroke-width="1" fill="none" fill-rule="evenodd" style="stroke: var(--iconoclash-shared-0,none)">
        <polyline id="Fill-161" fill="#64C5E5" points="210.004776 166.055 204.886776 104 185.742776 104 180.629776 166.055 210.004776 166.055" stroke="initial" style="stroke: var(--iconoclash-shared-2,initial)"/>
        <path d="M210.004776,166.055 L204.886776,104 L185.742776,104 L180.629776,166.055 L210.004776,166.055 Z M322.863776,267.774 C322.863776,226.637 305.617776,184.856 271.953776,157.438 C263.621776,150.653 254.414776,145.028 244.640776,140.66 L241.839776,122.586 C228.898776,116.606 216.668776,113.594 205.593776,112.426 L210.004776,166.055 L180.629776,166.055 L185.054776,112.258 C162.855776,114.246 148.789776,122.586 148.789776,122.586 L145.562776,140.668 C111.894776,156.133 87.441776,186.059 75.933776,219.086 C70.457776,234.781 67.765776,251.285 67.765776,267.774 L322.863776,267.774 Z M241.839776,122.586 L251.597776,185.574 L241.839776,122.586 Z M137.539776,185.574 L148.789776,122.586 L137.539776,185.574 Z M97.535776,209.051 C97.535776,209.051 84.617776,231.735 85.613776,249.059 L165.379776,249.059 L97.535776,209.051 Z M324.297776,267.774 L66.511776,267.774 C66.511776,267.774 54.890776,268.211 55,286.082 L335.63055,286.082 C335.738776,268.211 324.297776,267.774 324.297776,267.774 Z" id="Stroke-162" stroke="#233881" stroke-width="6.384" style="stroke: var(--iconoclash-shared-1,#233881)"/>
    </g>
</symbol><symbol id="triangle" viewBox="0 0 390 390">
    <!-- Generator: Sketch 52.5 (67469) - http://www.bohemiancoding.com/sketch -->
    <title>triangle</title>
    <desc>Created with Sketch.</desc>
    <g id="triangle" stroke="none" stroke-width="1" fill="none" fill-rule="evenodd" style="stroke: var(--iconoclash-shared-0,none)">
        <path d="M273.969,274.25 L179.731,274.25 L273.969,180.01 L273.969,274.25 Z M68,321.35 L321.348,321.35 L321.348,68 L68,321.35 Z" id="Fill-45" fill="#64C5E5" stroke="initial" style="stroke: var(--iconoclash-shared-2,initial)"/>
        <path d="M273.969,274.25 L179.731,274.25 L273.969,180.01 L273.969,274.25 Z M68,321.35 L321.348,321.35 L321.348,68 L68,321.35 Z" id="Stroke-46" stroke="#233881" stroke-width="6.384" style="stroke: var(--iconoclash-shared-1,#233881)"/>
        <path d="M99.043,308.18 L99.043,321.35" id="Fill-47" fill="#64C5E5" stroke="initial" style="stroke: var(--iconoclash-shared-2,initial)"/>
        <path d="M99.043,308.18 L99.043,321.35" id="Stroke-48" stroke="#233881" stroke-width="6.384" style="stroke: var(--iconoclash-shared-1,#233881)"/>
        <path d="M115,308.18 L115,321.35" id="Fill-49" fill="#64C5E5" stroke="initial" style="stroke: var(--iconoclash-shared-2,initial)"/>
        <path d="M115,308.18 L115,321.35" id="Stroke-50" stroke="#233881" stroke-width="6.384" style="stroke: var(--iconoclash-shared-1,#233881)"/>
        <path d="M130.961,308.18 L130.961,321.35" id="Fill-51" fill="#64C5E5" stroke="initial" style="stroke: var(--iconoclash-shared-2,initial)"/>
        <path d="M130.961,308.18 L130.961,321.35" id="Stroke-52" stroke="#233881" stroke-width="6.384" style="stroke: var(--iconoclash-shared-1,#233881)"/>
        <path d="M146.922,308.18 L146.922,321.35" id="Fill-53" fill="#64C5E5" stroke="initial" style="stroke: var(--iconoclash-shared-2,initial)"/>
        <path d="M146.922,308.18 L146.922,321.35" id="Stroke-54" stroke="#233881" stroke-width="6.384" style="stroke: var(--iconoclash-shared-1,#233881)"/>
        <path d="M162.883,308.18 L162.883,321.35" id="Fill-55" fill="#64C5E5" stroke="initial" style="stroke: var(--iconoclash-shared-2,initial)"/>
        <path d="M162.883,308.18 L162.883,321.35" id="Stroke-56" stroke="#233881" stroke-width="6.384" style="stroke: var(--iconoclash-shared-1,#233881)"/>
        <path d="M178.844,308.18 L178.844,321.35" id="Fill-57" fill="#64C5E5" stroke="initial" style="stroke: var(--iconoclash-shared-2,initial)"/>
        <path d="M178.844,308.18 L178.844,321.35" id="Stroke-58" stroke="#233881" stroke-width="6.384" style="stroke: var(--iconoclash-shared-1,#233881)"/>
        <path d="M194.801,308.18 L194.801,321.35" id="Fill-59" fill="#64C5E5" stroke="initial" style="stroke: var(--iconoclash-shared-2,initial)"/>
        <path d="M194.801,308.18 L194.801,321.35" id="Stroke-60" stroke="#233881" stroke-width="6.384" style="stroke: var(--iconoclash-shared-1,#233881)"/>
        <path d="M210.762,308.18 L210.762,321.35" id="Fill-61" fill="#64C5E5" stroke="initial" style="stroke: var(--iconoclash-shared-2,initial)"/>
        <path d="M210.762,308.18 L210.762,321.35" id="Stroke-62" stroke="#233881" stroke-width="6.384" style="stroke: var(--iconoclash-shared-1,#233881)"/>
        <path d="M226.719,308.18 L226.719,321.35" id="Fill-63" fill="#64C5E5" stroke="initial" style="stroke: var(--iconoclash-shared-2,initial)"/>
        <path d="M226.719,308.18 L226.719,321.35" id="Stroke-64" stroke="#233881" stroke-width="6.384" style="stroke: var(--iconoclash-shared-1,#233881)"/>
        <path d="M242.684,308.18 L242.684,321.35" id="Fill-65" fill="#64C5E5" stroke="initial" style="stroke: var(--iconoclash-shared-2,initial)"/>
        <path d="M242.684,308.18 L242.684,321.35" id="Stroke-66" stroke="#233881" stroke-width="6.384" style="stroke: var(--iconoclash-shared-1,#233881)"/>
        <path d="M258.645,308.18 L258.645,321.35" id="Fill-67" fill="#64C5E5" stroke="initial" style="stroke: var(--iconoclash-shared-2,initial)"/>
        <path d="M258.645,308.18 L258.645,321.35" id="Stroke-68" stroke="#233881" stroke-width="6.384" style="stroke: var(--iconoclash-shared-1,#233881)"/>
        <path d="M274.602,308.18 L274.602,321.35" id="Fill-69" fill="#64C5E5" stroke="initial" style="stroke: var(--iconoclash-shared-2,initial)"/>
        <path d="M274.602,308.18 L274.602,321.35" id="Stroke-70" stroke="#233881" stroke-width="6.384" style="stroke: var(--iconoclash-shared-1,#233881)"/>
        <path d="M290.559,308.18 L290.559,321.35" id="Fill-71" fill="#64C5E5" stroke="initial" style="stroke: var(--iconoclash-shared-2,initial)"/>
        <path d="M290.559,308.18 L290.559,321.35" id="Stroke-72" stroke="#233881" stroke-width="6.384" style="stroke: var(--iconoclash-shared-1,#233881)"/>
        <path d="M306.524,308.18 L306.524,321.35" id="Fill-73" fill="#64C5E5" stroke="initial" style="stroke: var(--iconoclash-shared-2,initial)"/>
        <path d="M306.524,308.18 L306.524,321.35" id="Stroke-74" stroke="#233881" stroke-width="6.384" style="stroke: var(--iconoclash-shared-1,#233881)"/>
    </g>
</symbol><symbol id="wrench" viewBox="0 0 390 390">
    <!-- Generator: Sketch 52.5 (67469) - http://www.bohemiancoding.com/sketch -->
    <title>wrench</title>
    <desc>Created with Sketch.</desc>
    <g id="wrench" stroke="none" stroke-width="1" fill="none" fill-rule="evenodd" style="stroke: var(--iconoclash-shared-0,none)">
        <polygon id="Fill-103" fill="#64C5E5" points="145.69 300.383 257.48 300.383 257.48 257.422 145.69 257.422" stroke="initial" style="stroke: var(--iconoclash-shared-2,initial)"/>
        <polygon id="Stroke-104" stroke="#233881" stroke-width="6.384" points="145.69 300.383 257.48 300.383 257.48 257.422 145.69 257.422" style="stroke: var(--iconoclash-shared-1,#233881)"/>
        <path d="M126.28,142.879 C126.28,142.879 113.47,154.633 118.18,173.68 C118.18,173.68 128.46,205.496 154.6,230.18 L154.6,257.422 L249.7,257.422 L249.7,231.887 L262.65,220.656 C262.65,220.656 271.95,213.492 271.89,201.074 L271.890289,130.539 L221.61,130.539" id="Fill-105" fill="#FFFFFE" stroke="initial" style="stroke: var(--iconoclash-shared-2,initial)"/>
        <path d="M126.28,142.879 C126.28,142.879 113.47,154.633 118.18,173.68 C118.18,173.68 128.46,205.496 154.6,230.18 L154.6,257.422 L249.7,257.422 L249.7,231.887 L262.65,220.656 C262.65,220.656 271.95,213.492 271.89,201.074 L271.890289,130.539 L221.61,130.539" id="Stroke-106" stroke="#233881" stroke-width="6.384" style="stroke: var(--iconoclash-shared-1,#233881)"/>
        <path d="M278.76,119.918 C278.51,119.898 278.29,119.879 278.03,119.879 L113.4,119.879 C112.35,119.879 111.41,119.98 110.52,120.152 C103.45,102.48 86.18,90 65.99,90 C46.3,90 29.39,101.879 22,118.855 L65.99,118.855 L65.99,157.055 L22,157.055 C29.39,174.031 46.3,185.91 65.99,185.91 C86.18,185.91 103.45,173.422 110.52,155.758 C111.41,155.926 112.35,156.039 113.4,156.039 L278.03,156.039 C278.18,156.039 278.3,156.012 278.45,156.012 C285.47,173.754 302.78,186.32 323.03,186.32 C342.72,186.32 359.64,174.441 367.02,157.465 L323.03,157.465 L323.03,119.258 L367.02,119.258 C359.64,102.281 342.72,90.41 323.03,90.41 C303.09,90.41 285.98,102.59 278.76,119.918" id="Fill-107" fill="#64C5E5" stroke="initial" style="stroke: var(--iconoclash-shared-2,initial)"/>
        <path d="M278.76,119.918 C278.51,119.898 278.29,119.879 278.03,119.879 L113.4,119.879 C112.35,119.879 111.41,119.98 110.52,120.152 C103.45,102.48 86.18,90 65.99,90 C46.3,90 29.39,101.879 22,118.855 L65.99,118.855 L65.99,157.055 L22,157.055 C29.39,174.031 46.3,185.91 65.99,185.91 C86.18,185.91 103.45,173.422 110.52,155.758 C111.41,155.926 112.35,156.039 113.4,156.039 L278.03,156.039 C278.18,156.039 278.3,156.012 278.45,156.012 C285.47,173.754 302.78,186.32 323.03,186.32 C342.72,186.32 359.64,174.441 367.02,157.465 L323.03,157.465 L323.03,119.258 L367.02,119.258 C359.64,102.281 342.72,90.41 323.03,90.41 C303.09,90.41 285.98,102.59 278.76,119.918 Z" id="Stroke-108" stroke="#233881" stroke-width="6.384" style="stroke: var(--iconoclash-shared-1,#233881)"/>
        <path d="M266.61,133.437 C269.21,133.437 271.33,135.555 271.33,138.16 C271.33,140.769 269.21,142.879 266.61,142.879 L122.43,142.879 C119.81,142.879 117.69,140.769 117.69,138.16 C117.69,135.555 119.81,133.437 122.43,133.437 L266.61,133.437" id="Fill-109" fill="#FFFFFE" stroke="initial" style="stroke: var(--iconoclash-shared-2,initial)"/>
        <path d="M266.61,133.437 C269.21,133.437 271.33,135.555 271.33,138.16 C271.33,140.769 269.21,142.879 266.61,142.879 L122.43,142.879 C119.81,142.879 117.69,140.769 117.69,138.16 C117.69,135.555 119.81,133.437 122.43,133.437 L266.61,133.437 Z" id="Path" stroke="#233881" stroke-width="6.384" style="stroke: var(--iconoclash-shared-1,#233881)"/>
        <path d="M68.39,102.641 C87.78,103.094 103.12,119.18 102.67,138.57 L68.39,102.641 Z" id="Path" stroke="#233881" stroke-width="6.384" style="stroke: var(--iconoclash-shared-1,#233881)"/>
        <path d="M329.88,173.68 C310.5,173.219 295.15,157.137 295.6,137.75 L329.88,173.68 Z" id="Path" stroke="#233881" stroke-width="6.384" style="stroke: var(--iconoclash-shared-1,#233881)"/>
        <path d="M183.45,137.707 C183.45,145.68 177,152.129 169.03,152.129 C161.07,152.129 154.6,145.68 154.6,137.707 L154.6,110.711 C154.6,102.742 161.07,96.289 169.03,96.289 C177,96.289 183.45,102.742 183.45,110.711 L183.45,137.707" id="Fill-111" fill="#FFFFFE" stroke="initial" style="stroke: var(--iconoclash-shared-2,initial)"/>
        <path d="M183.45,137.707 C183.45,145.68 177,152.129 169.03,152.129 C161.07,152.129 154.6,145.68 154.6,137.707 L154.6,110.711 C154.6,102.742 161.07,96.289 169.03,96.289 C177,96.289 183.45,102.742 183.45,110.711 L183.45,137.707 Z" id="Stroke-112" stroke="#233881" stroke-width="6.384" style="stroke: var(--iconoclash-shared-1,#233881)"/>
        <path d="M214.21,135.672 C214.21,143.633 207.75,150.094 199.79,150.094 C191.83,150.094 185.37,143.633 185.37,135.672 L185.37,104.422 C185.37,96.453 191.83,90 199.79,90 C207.75,90 214.21,96.453 214.21,104.422 L214.21,135.672" id="Fill-113" fill="#FFFFFE" stroke="initial" style="stroke: var(--iconoclash-shared-2,initial)"/>
        <path d="M214.21,135.672 C214.21,143.633 207.75,150.094 199.79,150.094 C191.83,150.094 185.37,143.633 185.37,135.672 L185.37,104.422 C185.37,96.453 191.83,90 199.79,90 C207.75,90 214.21,96.453 214.21,104.422 L214.21,135.672 Z" id="Stroke-114" stroke="#233881" stroke-width="6.384" style="stroke: var(--iconoclash-shared-1,#233881)"/>
        <path d="M243.05,130.5 C243.05,138.461 236.59,144.918 228.63,144.918 C220.66,144.918 214.21,138.461 214.21,130.5 L214.21,110.711 C214.21,102.742 220.66,96.289 228.63,96.289 C236.59,96.289 243.05,102.742 243.05,110.711 L243.05,130.5" id="Fill-115" fill="#FFFFFE" stroke="initial" style="stroke: var(--iconoclash-shared-2,initial)"/>
        <path d="M243.05,130.5 C243.05,138.461 236.59,144.918 228.63,144.918 C220.66,144.918 214.21,138.461 214.21,130.5 L214.21,110.711 C214.21,102.742 220.66,96.289 228.63,96.289 C236.59,96.289 243.05,102.742 243.05,110.711 L243.05,130.5 Z" id="Stroke-116" stroke="#233881" stroke-width="6.384" style="stroke: var(--iconoclash-shared-1,#233881)"/>
        <path d="M271.89,130.539 C271.89,138.504 265.43,144.961 257.48,144.961 C249.51,144.961 243.05,138.504 243.05,130.539 L243.05,117.058 C243.05,109.09 249.51,102.641 257.48,102.641 C265.43,102.641 271.89,109.09 271.89,117.058 L271.89,130.539" id="Fill-117" fill="#FFFFFE" stroke="initial" style="stroke: var(--iconoclash-shared-2,initial)"/>
        <path d="M271.89,130.539 C271.89,138.504 265.43,144.961 257.48,144.961 C249.51,144.961 243.05,138.504 243.05,130.539 L243.05,117.058 C243.05,109.09 249.51,102.641 257.48,102.641 C265.43,102.641 271.89,109.09 271.89,117.058 L271.89,130.539 Z" id="Stroke-118" stroke="#233881" stroke-width="6.384" style="stroke: var(--iconoclash-shared-1,#233881)"/>
        <path d="M184.09,205.496 C189.55,162.086 153.33,152.129 153.33,152.129 L195.22,152.129 C214.21,148.035 214.21,124.211 214.21,124.211 L148.41,124.211 L126.28,142.879 C126.28,142.879 114.32,155.906 118.18,173.68 C118.18,173.68 127.19,202.945 154.6,230.18" id="Fill-119" fill="#FFFFFE" stroke="initial" style="stroke: var(--iconoclash-shared-2,initial)"/>
        <path d="M184.09,205.496 C189.55,162.086 153.33,152.129 153.33,152.129 L195.22,152.129 C214.21,148.035 214.21,124.211 214.21,124.211 L148.41,124.211 L126.28,142.879 C126.28,142.879 114.32,155.906 118.18,173.68 C118.18,173.68 127.19,202.945 154.6,230.18" id="Stroke-120" stroke="#233881" stroke-width="6.384" stroke-linejoin="round" style="stroke: var(--iconoclash-shared-1,#233881)"/>
        <path d="M247.84,278.902 C247.84,283.137 244.4,286.566 240.17,286.566 C235.94,286.566 232.51,283.137 232.51,278.902 C232.51,274.68 235.94,271.242 240.17,271.242 C244.4,271.242 247.84,274.68 247.84,278.902" id="Fill-121" fill="#FFFFFE" stroke="initial" style="stroke: var(--iconoclash-shared-2,initial)"/>
        <path d="M247.84,278.902 C247.84,283.137 244.4,286.566 240.17,286.566 C235.94,286.566 232.51,283.137 232.51,278.902 C232.51,274.68 235.94,271.242 240.17,271.242 C244.4,271.242 247.84,274.68 247.84,278.902 Z" id="Path" stroke="#233881" stroke-width="6.384" style="stroke: var(--iconoclash-shared-1,#233881)"/>
    </g>
</symbol><g id="-bg"><use href="#"/></g><g id="calc-bg"><use href="#calc"/></g><g id="clipboard-bg"><use href="#clipboard"/></g><g id="compass-bg"><use href="#compass"/></g><g id="gear-bg"><use href="#gear"/></g><g id="hammer-bg"><use href="#hammer"/></g><g id="hardhat-bg"><use href="#hardhat"/></g><g id="triangle-bg"><use href="#triangle"/></g><g id="wrench-bg"><use href="#wrench"/></g></svg>