<?xml version="1.0" encoding="UTF-8"?><!DOCTYPE svg PUBLIC "-//W3C//DTD SVG 1.1//EN" "http://www.w3.org/Graphics/SVG/1.1/DTD/svg11.dtd"><svg xmlns="http://www.w3.org/2000/svg" xmlns:xlink="http://www.w3.org/1999/xlink"><defs><style>svg > g {display:none;} svg > g:target{display:inline}</style></defs><symbol id="wrench" viewBox="0 0 390 390">
    <!-- Generator: Sketch 52.5 (67469) - http://www.bohemiancoding.com/sketch -->
    <title>wrench</title>
    <desc>Created with Sketch.</desc>
    <g id="wrench" stroke="none" stroke-width="1" fill="none" fill-rule="evenodd" style="fill: var(--iconoclash-shared-0,none);stroke: var(--iconoclash-shared-0,none)">
        <polygon id="Fill-103" fill="#64C5E5" points="145.69 300.383 257.48 300.383 257.48 257.422 145.69 257.422" style="fill: var(--iconoclash-shared-2,#64C5E5);"/>
        <polygon id="Stroke-104" stroke="#233881" stroke-width="6.384" points="145.69 300.383 257.48 300.383 257.48 257.422 145.69 257.422" style=";stroke: var(--iconoclash-shared-1,#233881)"/>
        <path d="M126.28,142.879 C126.28,142.879 113.47,154.633 118.18,173.68 C118.18,173.68 128.46,205.496 154.6,230.18 L154.6,257.422 L249.7,257.422 L249.7,231.887 L262.65,220.656 C262.65,220.656 271.95,213.492 271.89,201.074 L271.890289,130.539 L221.61,130.539" id="Fill-105" fill="#FFFFFE" style="fill: var(--iconoclash-shared-3,#FFFFFE);"/>
        <path d="M126.28,142.879 C126.28,142.879 113.47,154.633 118.18,173.68 C118.18,173.68 128.46,205.496 154.6,230.18 L154.6,257.422 L249.7,257.422 L249.7,231.887 L262.65,220.656 C262.65,220.656 271.95,213.492 271.89,201.074 L271.890289,130.539 L221.61,130.539" id="Stroke-106" stroke="#233881" stroke-width="6.384" style=";stroke: var(--iconoclash-shared-1,#233881)"/>
        <path d="M278.76,119.918 C278.51,119.898 278.29,119.879 278.03,119.879 L113.4,119.879 C112.35,119.879 111.41,119.98 110.52,120.152 C103.45,102.48 86.18,90 65.99,90 C46.3,90 29.39,101.879 22,118.855 L65.99,118.855 L65.99,157.055 L22,157.055 C29.39,174.031 46.3,185.91 65.99,185.91 C86.18,185.91 103.45,173.422 110.52,155.758 C111.41,155.926 112.35,156.039 113.4,156.039 L278.03,156.039 C278.18,156.039 278.3,156.012 278.45,156.012 C285.47,173.754 302.78,186.32 323.03,186.32 C342.72,186.32 359.64,174.441 367.02,157.465 L323.03,157.465 L323.03,119.258 L367.02,119.258 C359.64,102.281 342.72,90.41 323.03,90.41 C303.09,90.41 285.98,102.59 278.76,119.918" id="Fill-107" fill="#64C5E5" style="fill: var(--iconoclash-shared-2,#64C5E5);"/>
        <path d="M278.76,119.918 C278.51,119.898 278.29,119.879 278.03,119.879 L113.4,119.879 C112.35,119.879 111.41,119.98 110.52,120.152 C103.45,102.48 86.18,90 65.99,90 C46.3,90 29.39,101.879 22,118.855 L65.99,118.855 L65.99,157.055 L22,157.055 C29.39,174.031 46.3,185.91 65.99,185.91 C86.18,185.91 103.45,173.422 110.52,155.758 C111.41,155.926 112.35,156.039 113.4,156.039 L278.03,156.039 C278.18,156.039 278.3,156.012 278.45,156.012 C285.47,173.754 302.78,186.32 323.03,186.32 C342.72,186.32 359.64,174.441 367.02,157.465 L323.03,157.465 L323.03,119.258 L367.02,119.258 C359.64,102.281 342.72,90.41 323.03,90.41 C303.09,90.41 285.98,102.59 278.76,119.918 Z" id="Stroke-108" stroke="#233881" stroke-width="6.384" style=";stroke: var(--iconoclash-shared-1,#233881)"/>
        <path d="M266.61,133.437 C269.21,133.437 271.33,135.555 271.33,138.16 C271.33,140.769 269.21,142.879 266.61,142.879 L122.43,142.879 C119.81,142.879 117.69,140.769 117.69,138.16 C117.69,135.555 119.81,133.437 122.43,133.437 L266.61,133.437" id="Fill-109" fill="#FFFFFE" style="fill: var(--iconoclash-shared-3,#FFFFFE);"/>
        <path d="M266.61,133.437 C269.21,133.437 271.33,135.555 271.33,138.16 C271.33,140.769 269.21,142.879 266.61,142.879 L122.43,142.879 C119.81,142.879 117.69,140.769 117.69,138.16 C117.69,135.555 119.81,133.437 122.43,133.437 L266.61,133.437 Z" id="Path" stroke="#233881" stroke-width="6.384" style=";stroke: var(--iconoclash-shared-1,#233881)"/>
        <path d="M68.39,102.641 C87.78,103.094 103.12,119.18 102.67,138.57 L68.39,102.641 Z" id="Path" stroke="#233881" stroke-width="6.384" style=";stroke: var(--iconoclash-shared-1,#233881)"/>
        <path d="M329.88,173.68 C310.5,173.219 295.15,157.137 295.6,137.75 L329.88,173.68 Z" id="Path" stroke="#233881" stroke-width="6.384" style=";stroke: var(--iconoclash-shared-1,#233881)"/>
        <path d="M183.45,137.707 C183.45,145.68 177,152.129 169.03,152.129 C161.07,152.129 154.6,145.68 154.6,137.707 L154.6,110.711 C154.6,102.742 161.07,96.289 169.03,96.289 C177,96.289 183.45,102.742 183.45,110.711 L183.45,137.707" id="Fill-111" fill="#FFFFFE" style="fill: var(--iconoclash-shared-3,#FFFFFE);"/>
        <path d="M183.45,137.707 C183.45,145.68 177,152.129 169.03,152.129 C161.07,152.129 154.6,145.68 154.6,137.707 L154.6,110.711 C154.6,102.742 161.07,96.289 169.03,96.289 C177,96.289 183.45,102.742 183.45,110.711 L183.45,137.707 Z" id="Stroke-112" stroke="#233881" stroke-width="6.384" style=";stroke: var(--iconoclash-shared-1,#233881)"/>
        <path d="M214.21,135.672 C214.21,143.633 207.75,150.094 199.79,150.094 C191.83,150.094 185.37,143.633 185.37,135.672 L185.37,104.422 C185.37,96.453 191.83,90 199.79,90 C207.75,90 214.21,96.453 214.21,104.422 L214.21,135.672" id="Fill-113" fill="#FFFFFE" style="fill: var(--iconoclash-shared-3,#FFFFFE);"/>
        <path d="M214.21,135.672 C214.21,143.633 207.75,150.094 199.79,150.094 C191.83,150.094 185.37,143.633 185.37,135.672 L185.37,104.422 C185.37,96.453 191.83,90 199.79,90 C207.75,90 214.21,96.453 214.21,104.422 L214.21,135.672 Z" id="Stroke-114" stroke="#233881" stroke-width="6.384" style=";stroke: var(--iconoclash-shared-1,#233881)"/>
        <path d="M243.05,130.5 C243.05,138.461 236.59,144.918 228.63,144.918 C220.66,144.918 214.21,138.461 214.21,130.5 L214.21,110.711 C214.21,102.742 220.66,96.289 228.63,96.289 C236.59,96.289 243.05,102.742 243.05,110.711 L243.05,130.5" id="Fill-115" fill="#FFFFFE" style="fill: var(--iconoclash-shared-3,#FFFFFE);"/>
        <path d="M243.05,130.5 C243.05,138.461 236.59,144.918 228.63,144.918 C220.66,144.918 214.21,138.461 214.21,130.5 L214.21,110.711 C214.21,102.742 220.66,96.289 228.63,96.289 C236.59,96.289 243.05,102.742 243.05,110.711 L243.05,130.5 Z" id="Stroke-116" stroke="#233881" stroke-width="6.384" style=";stroke: var(--iconoclash-shared-1,#233881)"/>
        <path d="M271.89,130.539 C271.89,138.504 265.43,144.961 257.48,144.961 C249.51,144.961 243.05,138.504 243.05,130.539 L243.05,117.058 C243.05,109.09 249.51,102.641 257.48,102.641 C265.43,102.641 271.89,109.09 271.89,117.058 L271.89,130.539" id="Fill-117" fill="#FFFFFE" style="fill: var(--iconoclash-shared-3,#FFFFFE);"/>
        <path d="M271.89,130.539 C271.89,138.504 265.43,144.961 257.48,144.961 C249.51,144.961 243.05,138.504 243.05,130.539 L243.05,117.058 C243.05,109.09 249.51,102.641 257.48,102.641 C265.43,102.641 271.89,109.09 271.89,117.058 L271.89,130.539 Z" id="Stroke-118" stroke="#233881" stroke-width="6.384" style=";stroke: var(--iconoclash-shared-1,#233881)"/>
        <path d="M184.09,205.496 C189.55,162.086 153.33,152.129 153.33,152.129 L195.22,152.129 C214.21,148.035 214.21,124.211 214.21,124.211 L148.41,124.211 L126.28,142.879 C126.28,142.879 114.32,155.906 118.18,173.68 C118.18,173.68 127.19,202.945 154.6,230.18" id="Fill-119" fill="#FFFFFE" style="fill: var(--iconoclash-shared-3,#FFFFFE);"/>
        <path d="M184.09,205.496 C189.55,162.086 153.33,152.129 153.33,152.129 L195.22,152.129 C214.21,148.035 214.21,124.211 214.21,124.211 L148.41,124.211 L126.28,142.879 C126.28,142.879 114.32,155.906 118.18,173.68 C118.18,173.68 127.19,202.945 154.6,230.18" id="Stroke-120" stroke="#233881" stroke-width="6.384" stroke-linejoin="round" style=";stroke: var(--iconoclash-shared-1,#233881)"/>
        <path d="M247.84,278.902 C247.84,283.137 244.4,286.566 240.17,286.566 C235.94,286.566 232.51,283.137 232.51,278.902 C232.51,274.68 235.94,271.242 240.17,271.242 C244.4,271.242 247.84,274.68 247.84,278.902" id="Fill-121" fill="#FFFFFE" style="fill: var(--iconoclash-shared-3,#FFFFFE);"/>
        <path d="M247.84,278.902 C247.84,283.137 244.4,286.566 240.17,286.566 C235.94,286.566 232.51,283.137 232.51,278.902 C232.51,274.68 235.94,271.242 240.17,271.242 C244.4,271.242 247.84,274.68 247.84,278.902 Z" id="Path" stroke="#233881" stroke-width="6.384" style=";stroke: var(--iconoclash-shared-1,#233881)"/>
    </g>
</symbol><g id="wrench-bg"><use href="#wrench"/></g></svg>