<?xml version="1.0" encoding="UTF-8"?>
<svg width="390px" height="390px" viewBox="0 0 390 390" version="1.1" xmlns="http://www.w3.org/2000/svg" xmlns:xlink="http://www.w3.org/1999/xlink">
    <!-- Generator: Sketch 52.5 (67469) - http://www.bohemiancoding.com/sketch -->
    <title>compass</title>
    <desc>Created with Sketch.</desc>
    <g id="compass" stroke="none" stroke-width="1" fill="none" fill-rule="evenodd">
        <polygon id="Path" stroke="#233881" stroke-width="6.384" points="139.6 290.08 198.18 121.7 177.02 114.33 125 285.01 125 321.98"></polygon>
        <polygon id="Path" stroke="#233881" stroke-width="6.384" points="264.54 321.98 265.3 290.08 215.55 114.33 194.39 121.7"></polygon>
        <path d="M221.22,123.39 C221.22,137.15 210.06,148.32 196.29,148.32 C182.51,148.32 171.36,137.15 171.36,123.39 C171.36,109.63 182.51,98.47 196.29,98.47 C210.06,98.47 221.22,109.63 221.22,123.39" id="Fill-90" fill="#64C5E5"></path>
        <path d="M221.22,123.39 C221.22,137.15 210.06,148.32 196.29,148.32 C182.51,148.32 171.36,137.15 171.36,123.39 C171.36,109.63 182.51,98.47 196.29,98.47 C210.06,98.47 221.22,109.63 221.22,123.39 Z" id="Path" stroke="#233881" stroke-width="6.384"></path>
        <path d="M265.31,160.34 C246.88,177.38 222.23,187.8 195.15,187.8 C168.07,187.8 143.42,177.38 125,160.34 L265.31,160.34 Z" id="Path" stroke="#233881" stroke-width="6.384"></path>
        <path d="M196.29,167.88 L196.29,199.55 L196.29,167.88 Z" id="Path" stroke="#233881" stroke-width="6.384"></path>
        <path d="M196.29,98.47 C199.2,98.47 202.01,98.97 204.6,99.89 L204.6,77.32 C204.6,72.73 200.88,69 196.29,69 C191.69,69 187.97,72.73 187.97,77.32 L187.97,99.89 C190.57,98.97 193.37,98.47 196.29,98.47" id="Fill-92" fill="#64C5E5"></path>
        <path d="M196.29,98.47 C199.2,98.47 202.01,98.97 204.6,99.89 L204.6,77.32 C204.6,72.73 200.88,69 196.29,69 C191.69,69 187.97,72.73 187.97,77.32 L187.97,99.89 C190.57,98.97 193.37,98.47 196.29,98.47 Z" id="Stroke-93" stroke="#233881" stroke-width="6.384"></path>
        <path d="M159.16,256.46 C159.16,265.88 151.51,273.52 142.08,273.52 C132.65,273.52 125,265.88 125,256.46 C125,247.01 132.65,239.37 142.08,239.37 C151.51,239.37 159.16,247.01 159.16,256.46" id="Fill-94" fill="#64C5E5"></path>
        <path d="M159.16,256.46 C159.16,265.88 151.51,273.52 142.08,273.52 C132.65,273.52 125,265.88 125,256.46 C125,247.01 132.65,239.37 142.08,239.37 C151.51,239.37 159.16,247.01 159.16,256.46 Z" id="Stroke-95" stroke="#233881" stroke-width="6.384"></path>
    </g>
</svg>