<?xml version="1.0" encoding="UTF-8"?>
<svg width="390px" height="390px" viewBox="0 0 390 390" version="1.1" xmlns="http://www.w3.org/2000/svg" xmlns:xlink="http://www.w3.org/1999/xlink">
    <!-- Generator: Sketch 52.5 (67469) - http://www.bohemiancoding.com/sketch -->
    <title>gear</title>
    <desc>Created with Sketch.</desc>
    <g id="gear" stroke="none" stroke-width="1" fill="none" fill-rule="evenodd">
        <path d="M194.9,228.29 C176.34,228.29 161.3,213.23 161.3,194.67 C161.3,176.12 176.34,161.07 194.9,161.07 C213.46,161.07 228.51,176.12 228.51,194.67 C228.51,213.23 213.46,228.29 194.9,228.29 Z M300.98,207.85 L322.81,206.21 L319.63,164.09 L298.07,165.72 C294.83,153.92 289.63,142.92 282.83,133.13 L297.63,117.62 L267.08,88.45 L252.39,103.85 C241.45,96.87 229.18,91.8 216.02,89.17 L216.02,68 L173.78,68 L173.78,89.17 C157.2,92.49 142.01,99.67 129.16,109.69 L113.06,95.71 L85.37,127.63 L101.61,141.7 C94.85,153.72 90.34,167.19 88.67,181.52 L67,183.15 L70.17,225.26 L92.07,223.61 C95.41,235.24 100.66,246.06 107.47,255.71 L92.17,271.74 L122.73,300.89 L138.14,284.75 C148.89,291.5 160.91,296.39 173.78,298.97 L173.78,321.35 L216.02,321.35 L216.02,298.97 C232.29,295.71 247.21,288.76 259.91,279.03 L276.75,293.64 L304.43,261.74 L287.73,247.25 C294.56,235.37 299.15,222.05 300.98,207.85 Z" id="Fill-84" fill="#FFFFFE"></path>
        <path d="M194.9,228.29 C176.34,228.29 161.3,213.23 161.3,194.67 C161.3,176.12 176.34,161.07 194.9,161.07 C213.46,161.07 228.51,176.12 228.51,194.67 C228.51,213.23 213.46,228.29 194.9,228.29 Z M300.98,207.85 L322.81,206.21 L319.63,164.09 L298.07,165.72 C294.83,153.92 289.63,142.92 282.83,133.13 L297.63,117.62 L267.08,88.45 L252.39,103.85 C241.45,96.87 229.18,91.8 216.02,89.17 L216.02,68 L173.78,68 L173.78,89.17 C157.2,92.49 142.01,99.67 129.16,109.69 L113.06,95.71 L85.37,127.63 L101.61,141.7 C94.85,153.72 90.34,167.19 88.67,181.52 L67,183.15 L70.17,225.26 L92.07,223.61 C95.41,235.24 100.66,246.06 107.47,255.71 L92.17,271.74 L122.73,300.89 L138.14,284.75 C148.89,291.5 160.91,296.39 173.78,298.97 L173.78,321.35 L216.02,321.35 L216.02,298.97 C232.29,295.71 247.21,288.76 259.91,279.03 L276.75,293.64 L304.43,261.74 L287.73,247.25 C294.56,235.37 299.15,222.05 300.98,207.85 Z" id="Stroke-85" stroke="#233881" stroke-width="6.384"></path>
        <path d="M262.15,194.68 C262.15,231.82 232.04,261.92 194.9,261.92 C157.76,261.92 127.66,231.82 127.66,194.68 C127.66,157.54 157.76,127.43 194.9,127.43 C232.04,127.43 262.15,157.54 262.15,194.68" id="Fill-86" fill="#64C5E5"></path>
        <path d="M262.15,194.68 C262.15,231.82 232.04,261.92 194.9,261.92 C157.76,261.92 127.66,231.82 127.66,194.68 C127.66,157.54 157.76,127.43 194.9,127.43 C232.04,127.43 262.15,157.54 262.15,194.68 Z" id="Stroke-87" stroke="#233881" stroke-width="6.384"></path>
        <path d="M228.51,194.67 C228.51,213.23 213.46,228.29 194.9,228.29 C176.34,228.29 161.3,213.23 161.3,194.67 C161.3,176.12 176.34,161.07 194.9,161.07 C213.46,161.07 228.51,176.12 228.51,194.67" id="Fill-88" fill="#FFFFFE"></path>
        <path d="M228.51,194.67 C228.51,213.23 213.46,228.29 194.9,228.29 C176.34,228.29 161.3,213.23 161.3,194.67 C161.3,176.12 176.34,161.07 194.9,161.07 C213.46,161.07 228.51,176.12 228.51,194.67 Z" id="Path" stroke="#233881" stroke-width="6.384"></path>
        <path d="M194.9,106.73 C241.64,106.73 282.85,144.28 282.85,194.67 L194.9,106.73 Z" id="Path" stroke="#233881" stroke-width="6.384"></path>
    </g>
</svg>