<?xml version="1.0" encoding="UTF-8"?>
<svg width="390px" height="390px" viewBox="0 0 390 390" version="1.1" xmlns="http://www.w3.org/2000/svg" xmlns:xlink="http://www.w3.org/1999/xlink">
    <!-- Generator: Sketch 52.5 (67469) - http://www.bohemiancoding.com/sketch -->
    <title>hammer</title>
    <desc>Created with Sketch.</desc>
    <g id="hammer" stroke="none" stroke-width="1" fill="none" fill-rule="evenodd">
        <path d="M213.52,68 L174.473,68 L161.125,87.976 L150.219,87.976 L143.297,80.132 L128,80.132 L128,116.925 L144.821,116.925 L147.922,109.281 L156.696,109.281 C156.696,109.281 174.457,112.511 178.121,135.605 L216.481,135.605 L223.207,112.214 C232.868,85.703 260.282,115.328 260.282,115.328 L261.942,114.253 C251.235,69.402 213.52,68 213.52,68 Z" id="Path" stroke="#233881" stroke-width="6.384"></path>
        <polygon id="Path" stroke="#233881" stroke-width="6.384" points="178.121 161.671 216.27 161.671 216.27 135.605 178.121 135.605"></polygon>
        <polygon id="Path" stroke="#233881" stroke-width="6.384" points="188.977 217.929 205.418 217.929 205.418 161.671 188.977 161.671"></polygon>
        <path d="M224.731,321.355 C223.45,310.816 216.27,308.906 216.27,308.906 L216.27,228.46 C215.801,218.246 209.489,217.929 209.489,217.929 L184.91,217.929 C184.91,217.929 178.598,218.246 178.121,228.46 L178.121,308.906 C178.121,308.906 170.95,310.816 169.668,321.355 L224.731,321.355" id="Fill-19" fill="#64C5E5"></path>
        <path d="M224.731,321.355 C223.45,310.816 216.27,308.906 216.27,308.906 L216.27,228.46 C215.801,218.246 209.489,217.929 209.489,217.929 L184.91,217.929 C184.91,217.929 178.598,218.246 178.121,228.46 L178.121,308.906 C178.121,308.906 170.95,310.816 169.668,321.355 L224.731,321.355 Z" id="Path" stroke="#233881" stroke-width="6.384"></path>
        <path d="M162.543,99.855 C162.543,99.855 183.715,101.804 187.332,125.921 L162.543,99.855 Z" id="Path" stroke="#233881" stroke-width="6.384"></path>
    </g>
</svg>