<?xml version="1.0" encoding="UTF-8"?>
<svg width="390px" height="390px" viewBox="0 0 390 390" version="1.1" xmlns="http://www.w3.org/2000/svg" xmlns:xlink="http://www.w3.org/1999/xlink">
    <!-- Generator: Sketch 52.5 (67469) - http://www.bohemiancoding.com/sketch -->
    <title>hardhat</title>
    <desc>Created with Sketch.</desc>
    <g id="hardhat" stroke="none" stroke-width="1" fill="none" fill-rule="evenodd">
        <polyline id="Fill-161" fill="#64C5E5" points="210.004776 166.055 204.886776 104 185.742776 104 180.629776 166.055 210.004776 166.055"></polyline>
        <path d="M210.004776,166.055 L204.886776,104 L185.742776,104 L180.629776,166.055 L210.004776,166.055 Z M322.863776,267.774 C322.863776,226.637 305.617776,184.856 271.953776,157.438 C263.621776,150.653 254.414776,145.028 244.640776,140.66 L241.839776,122.586 C228.898776,116.606 216.668776,113.594 205.593776,112.426 L210.004776,166.055 L180.629776,166.055 L185.054776,112.258 C162.855776,114.246 148.789776,122.586 148.789776,122.586 L145.562776,140.668 C111.894776,156.133 87.441776,186.059 75.933776,219.086 C70.457776,234.781 67.765776,251.285 67.765776,267.774 L322.863776,267.774 Z M241.839776,122.586 L251.597776,185.574 L241.839776,122.586 Z M137.539776,185.574 L148.789776,122.586 L137.539776,185.574 Z M97.535776,209.051 C97.535776,209.051 84.617776,231.735 85.613776,249.059 L165.379776,249.059 L97.535776,209.051 Z M324.297776,267.774 L66.511776,267.774 C66.511776,267.774 54.890776,268.211 55,286.082 L335.63055,286.082 C335.738776,268.211 324.297776,267.774 324.297776,267.774 Z" id="Stroke-162" stroke="#233881" stroke-width="6.384"></path>
    </g>
</svg>