<svg xmlns="http://www.w3.org/2000/svg" width="100" height="100" viewBox="0 0 100 100"><path fill="#3DB39E" d="M50 0c27.614 0 50 22.386 50 50s-22.386 50-50 50-50-22.386-50-50 22.386-50 50-50z"/><path fill="#324D5B" d="M31.357 26.277l-30.844 30.843c3.126 21.913 20.453 39.24 42.366 42.366l30.845-30.845c11.31-11.309 10.993-29.96-.706-41.659s-30.351-12.014-41.661-.705z"/><path fill="#283E49" d="M1.013 60.061c4.068 19.916 19.982 35.506 40.057 39.128l31.93-32.338-39.346-39.851-32.641 33.061z"/><g fill="#1C2C33"><path d="M29.117 43.025l-2.152-2.158c-1.188-1.191-3.115-1.191-4.304 0l-5.74 5.753c-1.188 1.191-1.188 3.123 0 4.313l2.152 2.158c1.189 1.191 3.116 1.191 4.305 0l5.739-5.753c1.19-1.191 1.19-3.122 0-4.313zM59.133 73.035l-2.157-2.152c-1.191-1.189-3.123-1.189-4.314 0l-.588.587-23.484-23.484-3.591 3.592 4.985 10.984c.981 1.768 2.205 3.389 3.635 4.818s3.051 2.653 4.818 3.636l9.685 4.395-1.214 1.211c-1.191 1.188-1.191 3.116 0 4.305l2.158 2.152c1.191 1.188 3.123 1.188 4.314 0l5.752-5.739c1.192-1.19 1.192-3.116.001-4.305z"/></g><path fill-rule="evenodd" clip-rule="evenodd" fill="#CDCDCD" d="M50.922 59.514l-9.936-9.935c-.784-.784-2.055-.784-2.838 0l-12.065 12.064c-.784.784-.784 2.055 0 2.84l9.935 9.935c.784.784 2.055.784 2.839 0l12.065-12.063c.783-.787.783-2.057 0-2.841z"/><path fill="#949494" d="M28.479 59.246l1.505 3.316c.981 1.768 2.205 3.389 3.635 4.818s3.051 2.653 4.818 3.636l2.628 1.192 5.874-5.873-12.774-12.773-5.686 5.684z"/><path fill="#AEAEAE" d="M54.014 71.41l-24.424-24.424-3.591 3.592 4.985 10.984c.981 1.768 2.205 3.389 3.635 4.818 1.43 1.43 3.051 2.653 4.818 3.636l10.984 4.984 3.593-3.59z"/><g fill="#949494"><path d="M31.493 48.889l-1.903-1.903-3.591 3.592 1.652 3.64zM46.831 73.371l3.591 1.63 3.592-3.591-1.9-1.899z"/></g><circle fill="#A6A6A6" cx="47.519" cy="60.484" r="1.5"/><circle fill="#A6A6A6" cx="40.516" cy="53.487" r="1.5"/><circle fill="#9C9C9C" cx="36.489" cy="63.488" r="1.511"/><path fill="#DFDFDF" d="M54.014 71.41l-2 2-24.424-24.424 2-2z"/><g fill="#C3C3C3"><path d="M31.492 48.889l-1.902-1.903-2 2 2.223 2.224zM54.014 71.41l-1.903-1.902-2.321 1.679 2.224 2.223z"/></g><path fill="#3A96B4" d="M60.133 72.035l-2.157-2.152c-1.191-1.189-3.123-1.189-4.314 0l-5.753 5.739c-1.191 1.188-1.191 3.116 0 4.305l2.158 2.152c1.191 1.188 3.123 1.188 4.314 0l5.752-5.739c1.191-1.19 1.191-3.116 0-4.305zm-32.168-32.168c-1.188-1.191-3.115-1.191-4.304 0l-5.74 5.753c-1.188 1.191-1.188 3.123 0 4.314l2.152 2.158c1.189 1.191 3.116 1.191 4.305 0l5.739-5.753c1.189-1.191 1.189-3.123 0-4.314l-2.152-2.158z"/><g fill="#3589A4"><path d="M47.964 79.982l2.055 2.05 10.055-10.055-2.053-2.05zM20.018 52.036l10.055-10.056-2.05-2.054-10.055 10.055z"/></g><path fill="#DBD8BD" d="M51.539 17.998c-7.369 0-14.652 2.75-20.182 8.279l-30.843 30.851c.145 1.015.312 2.023.518 3.018l32.093-32.101c4.867-4.867 11.407-7.547 18.414-7.547 7.389 0 14.389 2.931 19.711 8.253 5.197 5.197 8.127 12.034 8.249 19.25.122 7.185-2.557 13.887-7.543 18.873l-32.089 32.098c.995.204 2.003.371 3.019.516l30.837-30.846c11.31-11.309 10.993-29.96-.706-41.659-5.979-5.98-13.775-8.985-21.478-8.985z"/></svg>