<svg width="100" height="100" preserveAspectRatio viewBox="0 0 100 100" fill="none" xmlns="http://www.w3.org/2000/svg">
<path id="Vector" d="M50 0C77.614 0 100 22.386 100 50C100 77.614 77.614 100 50 100C22.386 100 0 77.614 0 50C0 22.386 22.386 0 50 0Z" fill="#EDEDED"/>
<path id="Vector_2" d="M71 52C66.029 52 62 56.029 62 61C62 65.971 66.029 70 71 70C75.971 70 80 65.971 80 61C80 56.029 75.971 52 71 52ZM25 52C20.029 52 16 56.029 16 61C16 65.971 20.029 70 25 70C29.971 70 34 65.971 34 61C34 56.029 29.971 52 25 52Z" fill="#324D5B"/>
<path id="Vector_3" d="M71 56C68.238 56 66 58.238 66 61C66 63.762 68.238 66 71 66C73.762 66 76 63.762 76 61C76 58.238 73.762 56 71 56ZM25 56C22.238 56 20 58.238 20 61C20 63.762 22.238 66 25 66C27.762 66 30 63.762 30 61C30 58.238 27.762 56 25 56Z" fill="#B5BCC0"/>
<path  d="M86.97 61.564L87.007 61.476C87.007 52.632 79.99 44.322 71.259 43.98C66.182 43.98 55.736 43.979 55.736 43.979C55.736 43.979 54.58 43.465 53.997 46.256V49.216C53.96 49.392 53.958 49.573 53.989 49.74C54.102 50.341 54.544 50.776 55.301 51.035C56.959 51.591 57.984 52.775 58.035 54.543C58.071 55.673 57.663 56.757 56.89 57.581C56.115 58.405 55.069 58.877 53.94 58.913L53.813 58.97H48.283L48.234 58.949C42.621 58.949 38.053 54.737 38.02 49.402L41.484 34.606C41.575 34.212 41.482 33.797 41.231 33.481C40.98 33.165 40.598 32.981 40.195 32.981H32.995C32.995 32.981 31.846 32.471 29.746 38.71L28.041 44.063C26.501 44.063 21.8 44.339 17.607 48.53C17.107 49.031 16.833 49.577 17.192 50.188L24.454 62.931L33.833 63H85.692C86.423 63 87.014 62.404 87.014 61.673L86.97 61.564V61.564Z" fill="#E2574C"/>
<path id="Vector_4" d="M66.5 53H75.5C76.328 53 77 52.328 77 51.5C77 50.672 76.328 50 75.5 50H66.5C65.672 50 65 50.672 65 51.5C65 52.328 65.672 53 66.5 53ZM75.5 54H66.5C65.672 54 65 54.672 65 55.5C65 56.328 65.672 57 66.5 57H75.5C76.328 57 77 56.328 77 55.5C77 54.672 76.328 54 75.5 54Z" fill="#EE7269"/>
<path id="Vector_5" d="M37.984 32.982V30.156C37.984 28.816 38.822 27.975 40.157 27.975H44.7C45.431 27.975 46.023 27.194 46.023 26.46C46.023 25.726 45.431 25.008 44.7 25.008H40.038L40.012 25.018C37.243 25.047 34.995 27.307 34.995 30.093V32.982H37.984V32.982ZM27 32C29.762 32 32 34.015 32 36.5C32 38.985 29.762 41 27 41V32Z" fill="#324D5B"/>
<path id="Vector_6" d="M31 47C32.657 47 34 48.344 34 50C34 51.657 32.657 53 31 53C29.343 53 28 51.657 28 50C28 48.344 29.343 47 31 47Z" fill="#EFC75E"/>
<path id="iconoclash fill" d="M95.828 70H4.172C11.889 87.656 29.499 100 50 100C70.501 100 88.111 87.656 95.828 70Z" fill="#3DB39E"/>
<g id="Group">
<path id="Vector_7" d="M55.301 51.036C56.959 51.592 57.984 52.776 58.035 54.544C58.057 55.237 57.894 55.904 57.6 56.514C58.078 56.289 58.517 55.98 58.89 55.582C59.662 54.758 60.071 53.674 60.035 52.544C59.983 50.776 58.959 49.592 57.301 49.036C56.543 48.777 56.102 48.342 55.989 47.741C55.958 47.574 55.96 47.392 55.997 47.217V44.257L56.063 43.98H55.736C55.736 43.98 54.58 43.466 53.997 46.257V49.217C53.96 49.393 53.958 49.574 53.989 49.741C54.102 50.342 54.543 50.777 55.301 51.036V51.036ZM87.007 61.477L86.984 61H35.833L26.454 60.934L19.192 48.19C18.984 47.836 18.993 47.504 19.13 47.19C18.619 47.586 18.109 48.029 17.607 48.532C17.107 49.033 16.833 49.579 17.192 50.19L24.454 62.933L33.833 63H85.692C86.423 63 87.014 62.404 87.014 61.673L86.97 61.565L87.007 61.477V61.477Z" fill="#CB4E44"/>
</g>
<path id="Vector_8" d="M54.5 36H68.5C70.985 36 73 38.015 73 40.5C73 42.985 70.985 45 68.5 45H54.5C52.015 45 50 42.985 50 40.5C50 38.015 52.015 36 54.5 36Z" fill="#324D5B"/>
<g id="Group_2">
<path id="Vector_9" d="M75.5 56H66.5C65.848 56 65.299 55.581 65.092 55C65.036 55.157 65 55.324 65 55.5C65 56.328 65.672 57 66.5 57H75.5C76.328 57 77 56.328 77 55.5C77 55.324 76.964 55.157 76.908 55C76.701 55.581 76.152 56 75.5 56ZM75.5 52H66.5C65.848 52 65.299 51.581 65.092 51C65.036 51.157 65 51.324 65 51.5C65 52.328 65.672 53 66.5 53H75.5C76.328 53 77 52.328 77 51.5C77 51.324 76.964 51.157 76.908 51C76.701 51.581 76.152 52 75.5 52Z" fill="#D1645C"/>
</g>
<path id="Vector_10" d="M29 32.38C28.387 32.138 27.712 32 27 32V41C27.712 41 28.387 40.862 29 40.62V32.38V32.38Z" fill="#2D4552"/>
<path id="Vector_11" d="M31 47C32.657 47 34 48.344 34 50C34 51.657 32.657 53 31 53C29.343 53 28 51.657 28 50C28 48.344 29.343 47 31 47ZM31 46C28.794 46 27 47.794 27 50C27 52.206 28.794 54 31 54C33.206 54 35 52.206 35 50C35 47.794 33.206 46 31 46Z" fill="#CB4E44"/>
<path id="Vector_12" d="M68.5 42H54.5C52.543 42 50.896 40.744 50.275 39C50.108 39.471 50 39.971 50 40.5C50 42.985 52.015 45 54.5 45H68.5C70.985 45 73 42.985 73 40.5C73 39.971 72.892 39.471 72.725 39C72.104 40.744 70.457 42 68.5 42Z" fill="#2B424D"/>

</svg>
